<svg width="0" height="0" class="hidden" xmlns="http://www.w3.org/2000/svg">
  <!-- action menu -->
  <symbol
    width="22"
    height="22"
    viewBox="0 0 22 22"
    fill="none"
    xmlns="http://www.w3.org/2000/svg"
    id="icon-action-menu"
  >
    <path
      d="M17.7834 13.75C17.6613 14.0265 17.6249 14.3332 17.6788 14.6305C17.7328 14.9279 17.8745 15.2023 18.0859 15.4183L18.1409 15.4733C18.3113 15.6436 18.4465 15.8458 18.5388 16.0684C18.6311 16.2909 18.6785 16.5295 18.6785 16.7704C18.6785 17.0113 18.6311 17.2499 18.5388 17.4725C18.4465 17.695 18.3113 17.8972 18.1409 18.0675C17.9706 18.238 17.7684 18.3732 17.5458 18.4654C17.3233 18.5577 17.0847 18.6052 16.8438 18.6052C16.6028 18.6052 16.3643 18.5577 16.1417 18.4654C15.9191 18.3732 15.717 18.238 15.5467 18.0675L15.4917 18.0125C15.2756 17.8012 15.0013 17.6594 14.7039 17.6055C14.4065 17.5516 14.0998 17.588 13.8234 17.71C13.5522 17.8262 13.321 18.0191 13.1581 18.2651C12.9953 18.511 12.9079 18.7992 12.9067 19.0942V19.25C12.9067 19.7362 12.7135 20.2025 12.3697 20.5464C12.0259 20.8902 11.5596 21.0833 11.0734 21.0833C10.5871 21.0833 10.1208 20.8902 9.77699 20.5464C9.43317 20.2025 9.24002 19.7362 9.24002 19.25V19.1675C9.23292 18.8641 9.13471 18.5698 8.95815 18.323C8.7816 18.0761 8.53486 17.8881 8.25002 17.7833C7.97354 17.6613 7.66684 17.6249 7.36948 17.6788C7.07212 17.7328 6.79773 17.8745 6.58169 18.0858L6.52669 18.1408C6.35642 18.3113 6.15422 18.4465 5.93166 18.5388C5.7091 18.631 5.47053 18.6785 5.2296 18.6785C4.98868 18.6785 4.75011 18.631 4.52755 18.5388C4.30498 18.4465 4.10279 18.3113 3.93252 18.1408C3.76206 17.9706 3.62684 17.7684 3.53458 17.5458C3.44232 17.3232 3.39483 17.0847 3.39483 16.8438C3.39483 16.6028 3.44232 16.3643 3.53458 16.1417C3.62684 15.9191 3.76206 15.7169 3.93252 15.5467L3.98752 15.4917C4.19885 15.2756 4.34061 15.0012 4.39452 14.7039C4.44844 14.4065 4.41204 14.0998 4.29002 13.8233C4.17382 13.5522 3.98088 13.321 3.73495 13.1581C3.48901 12.9953 3.20082 12.9078 2.90585 12.9067H2.75002C2.26379 12.9067 1.79747 12.7135 1.45366 12.3697C1.10984 12.0259 0.916687 11.5596 0.916687 11.0733C0.916687 10.5871 1.10984 10.1208 1.45366 9.77698C1.79747 9.43316 2.26379 9.24 2.75002 9.24H2.83252C3.13593 9.23291 3.43019 9.1347 3.67704 8.95814C3.9239 8.78158 4.11193 8.53485 4.21669 8.25C4.33871 7.97352 4.37511 7.66683 4.32119 7.36947C4.26727 7.0721 4.12551 6.79771 3.91419 6.58167L3.85919 6.52667C3.68873 6.3564 3.55351 6.15421 3.46124 5.93165C3.36898 5.70908 3.32149 5.47052 3.32149 5.22959C3.32149 4.98866 3.36898 4.75009 3.46124 4.52753C3.55351 4.30497 3.68873 4.10277 3.85919 3.9325C4.02945 3.76205 4.23165 3.62682 4.45421 3.53456C4.67678 3.4423 4.91534 3.39481 5.15627 3.39481C5.3972 3.39481 5.63576 3.4423 5.85833 3.53456C6.08089 3.62682 6.28309 3.76205 6.45335 3.9325L6.50835 3.9875C6.72439 4.19883 6.99878 4.34059 7.29615 4.39451C7.59351 4.44843 7.90021 4.41203 8.17669 4.29H8.25002C8.52114 4.17381 8.75237 3.98086 8.91524 3.73493C9.07811 3.489 9.16551 3.20081 9.16669 2.90584V2.75001C9.16669 2.26377 9.35984 1.79746 9.70366 1.45364C10.0475 1.10983 10.5138 0.916672 11 0.916672C11.4863 0.916672 11.9526 1.10983 12.2964 1.45364C12.6402 1.79746 12.8334 2.26377 12.8334 2.75001V2.8325C12.8345 3.12748 12.9219 3.41567 13.0848 3.6616C13.2477 3.90753 13.4789 4.10047 13.75 4.21667C14.0265 4.33869 14.3332 4.37509 14.6306 4.32118C14.9279 4.26726 15.2023 4.1255 15.4184 3.91417L15.4734 3.85917C15.6436 3.68871 15.8458 3.55349 16.0684 3.46123C16.2909 3.36897 16.5295 3.32148 16.7704 3.32148C17.0114 3.32148 17.2499 3.36897 17.4725 3.46123C17.6951 3.55349 17.8973 3.68871 18.0675 3.85917C18.238 4.02944 18.3732 4.23163 18.4655 4.4542C18.5577 4.67676 18.6052 4.91533 18.6052 5.15625C18.6052 5.39718 18.5577 5.63575 18.4655 5.85831C18.3732 6.08088 18.238 6.28307 18.0675 6.45334L18.0125 6.50834C17.8012 6.72438 17.6594 6.99877 17.6055 7.29613C17.5516 7.59349 17.588 7.90019 17.71 8.17667V8.25C17.8262 8.52113 18.0192 8.75235 18.2651 8.91522C18.511 9.07809 18.7992 9.16549 19.0942 9.16667H19.25C19.7362 9.16667 20.2026 9.35983 20.5464 9.70364C20.8902 10.0475 21.0834 10.5138 21.0834 11C21.0834 11.4862 20.8902 11.9526 20.5464 12.2964C20.2026 12.6402 19.7362 12.8333 19.25 12.8333H19.1675C18.8725 12.8345 18.5844 12.9219 18.3384 13.0848C18.0925 13.2477 17.8996 13.4789 17.7834 13.75V13.75Z"
      stroke="black"
      stroke-width="2"
      stroke-linecap="round"
      stroke-linejoin="round"
    />
  </symbol>
</svg>
